#!OML:ASF F:\VICON\USERDATA\Patient Classification 1\PLAYGROUND\JustinFriday\JustinFriday.ASF
:FULLY-SPECIFIED
:DEGREES
4370
root -19.1341 17.5592 11.0177 184.081 39.8727 -168.567
lowerback 10.3548 5.16878 5.15917
upperback -0.43093 7.83316 3.0342
thorax -5.98706 3.789 -0.876818
lowerneck 0.0409286 -0.337392 -5.78596
upperneck 13.2783 0.261549 1.07524
head 4.38445 0.143366 1.41582
rclavicle -6.71908e-015 -2.70347e-014
rhumerus -34.1373 1.54226 -80.1557
rradius 45.3017
rwrist -9.52131
rhand -16.3566 -382.16
rfingers 7.12502
rthumb 9.85613 -411.909
lclavicle -6.71908e-015 -2.70347e-014
lhumerus -45.4401 22.0828 56.6862
lradius 25.085
lwrist -0.673697
lhand -20.693 -1.57709
lfingers 7.12502
lthumb 5.67073 28.327
rfemur -1.57884 -12.1732 28.4245
rtibia 26.7455
rfoot -22.6262 -20.1203
rtoes 26.2642
lfemur -8.74419 8.84752 1.34788
ltibia 34.7819
lfoot -15.3881 28.8449
ltoes 14.5464
4371
root -19.0918 17.5593 11.031 184.05 41.2976 -168.018
lowerback 9.40862 5.13063 5.98363
upperback 0.689262 7.70722 2.5591
thorax -4.10603 3.78533 -1.62191
lowerneck -1.02104 -1.44419 -5.22318
upperneck 12.597 -1.38795 1.49799
head 4.40663 -0.6709 1.38952
rclavicle -2.5842e-014 1.45113e-014
rhumerus -32.0407 0.979758 -81.1459
rradius 43.8581
rwrist -9.44389
rhand -15.7862 -382.56
rfingers 7.12502
rthumb 10.4064 -412.282
lclavicle -2.5842e-014 1.45113e-014
lhumerus -44.1991 22.8361 56.6
lradius 24.5117
lwrist -0.161203
lhand -21.6749 -1.1456
lfingers 7.12502
lthumb 4.72269 28.7818
rfemur -0.829728 -12.1583 28.6011
rtibia 26.291
rfoot -21.2089 -19.6687
rtoes 24.0864
lfemur -8.05187 8.56763 1.91568
ltibia 35.5304
lfoot -16.5719 29.3085
ltoes 17.0654
4372
root -19.0438 17.5497 11.0953 184.917 42.3681 -167.167
lowerback 8.54488 4.84928 6.34335
upperback 1.1161 7.26871 2.41445
thorax -3.14341 3.60601 -1.80242
lowerneck 0.179439 -2.07672 -6.23882
upperneck 11.0359 -2.4966 2.94424
head 3.71505 -1.22556 2.01209
rclavicle 8.19366e-014 -4.37326e-015
rhumerus -30.6368 1.50813 -82.1663
rradius 42.547
rwrist -9.48562
rhand -15.814 -382.951
rfingers 7.12502
rthumb 10.3796 -412.675
lclavicle 8.19366e-014 -4.37326e-015
lhumerus -44.3458 23.2042 56.5208
lradius 24.6768
lwrist 1.11801
lhand -22.5984 -0.160672
lfingers 7.12502
lthumb 3.83096 29.7846
rfemur -0.923856 -11.6318 29.5621
rtibia 25.8124
rfoot -20.1969 -19.7368
rtoes 22.362
lfemur -8.49071 9.38538 2.99272
ltibia 36.4037
lfoot -15.5185 29.4086
ltoes 17.1494
4373
root -18.9963 17.5356 11.1543 185.671 43.739 -166.306
lowerback 8.24093 4.70548 6.49758
upperback 1.30429 7.05069 2.31726
thorax -2.76279 3.51297 -1.92355
lowerneck 1.60034 -2.69959 -7.19044
upperneck 10.018 -3.54682 4.41054
head 3.22256 -1.74793 2.65713
rclavicle 1.57785e-014 1.86858e-014
rhumerus -29.7634 2.1309 -83.0537
rradius 41.3035
rwrist -9.56715
rhand -15.405 -382.692
rfingers 7.12502
rthumb 10.7741 -412.396
lclavicle 1.57785e-014 1.86858e-014
lhumerus -45.1244 23.3082 56.3568
lradius 25.3308
lwrist 2.81657
lhand -22.95 0.286852
lfingers 7.12502
lthumb 3.49142 30.238
rfemur -0.682311 -10.9806 30.357
rtibia 25.0842
rfoot -19.3526 -19.4611
rtoes 21.3652
lfemur -8.5499 10.1702 3.98932
ltibia 37.1401
lfoot -14.6677 29.6007
ltoes 17.6081
4374
root -18.9466 17.533 11.1606 185.696 45.6845 -165.577
lowerback 8.36113 4.02359 5.8367
upperback 1.20415 6.17953 3.36493
thorax -3.18873 3.09236 -0.434871
lowerneck 2.13613 -2.89893 -9.44515
upperneck 10.6091 -3.78491 4.32013
head 3.42339 -1.95129 3.05261
rclavicle -1.44082e-013 -2.22639e-014
rhumerus -30.319 6.5354 -83.2351
rradius 40.411
rwrist -10.169
rhand -15.1259 -382.578
rfingers 7.12502
rthumb 11.0433 -412.267
lclavicle -1.44082e-013 -2.22639e-014
lhumerus -49.451 25.3173 55.2962
lradius 25.9079
lwrist 4.14951
lhand -23.12 -0.583179
lfingers 7.12502
lthumb 3.32718 29.3706
rfemur 0.395579 -10.4252 30.4702
rtibia 24.4864
rfoot -18.7293 -18.4803
rtoes 20.7859
lfemur -7.47299 9.6975 4.47179
ltibia 37.9031
lfoot -16.7092 30.1813
ltoes 23.1665
4375
root -18.8844 17.5526 11.1304 185.219 48.1096 -165.57
lowerback 8.25033 4.90514 6.16751
upperback 1.92419 7.26776 2.33864
thorax -2.14948 3.66164 -1.70384
lowerneck 0.465553 -4.64256 -6.77986
upperneck 11.1655 -6.08193 4.01343
head 3.98129 -3.00043 2.34603
rclavicle 1.99654e-013 2.22639e-014
rhumerus -29.341 4.23925 -84.0178
rradius 39.3833
rwrist -9.85438
rhand -14.9064 -383.141
rfingers 7.12502
rthumb 11.255 -412.819
lclavicle 1.99654e-013 2.22639e-014
lhumerus -47.2823 23.8483 55.9868
lradius 25.3146
lwrist 5.30693
lhand -23.6712 -1.70049
lfingers 7.12502
lthumb 2.79495 28.2609
rfemur 1.6073 -9.73055 29.7777
rtibia 23.9365
rfoot -18.3034 -16.9514
rtoes 20.8578
lfemur -6.01337 8.68646 4.01147
ltibia 38.6285
lfoot -20.5285 30.8097
ltoes 29.2784
4376
root -18.8559 17.5503 11.2689 186.053 47.9771 -165.394
lowerback 8.49226 4.37868 5.36609
upperback 1.52608 6.51333 2.2386
thorax -2.82674 3.25474 -1.35721
lowerneck -0.0866335 -5.62774 -6.51742
upperneck 12.2025 -7.44628 4.3711
head 4.07403 -3.62549 2.11898
rclavicle -6.73383e-014 -1.78906e-014
rhumerus -28.8215 4.28217 -84.5864
rradius 38.1978
rwrist -9.75081
rhand -14.3216 -383.164
rfingers 7.12502
rthumb 11.819 -412.81
lclavicle -6.73383e-014 -1.78906e-014
lhumerus -47.7875 24.1652 55.6443
lradius 24.9363
lwrist 5.90025
lhand -24.3363 -2.26692
lfingers 7.12502
lthumb 2.15261 27.702
rfemur 0.880463 -9.60282 30.7106
rtibia 23.4768
rfoot -18.3052 -17.1088
rtoes 21.6332
lfemur -7.65854 9.10676 4.74776
ltibia 39.4897
lfoot -18.5936 30.7042
ltoes 29.0372
4377
root -18.8164 17.5494 11.3099 187.02 49.3598 -164.443
lowerback 8.21596 4.4882 5.67079
upperback 1.6275 6.64703 2.01781
thorax -2.49888 3.32781 -1.72767
lowerneck -0.535673 -6.73824 -6.20713
upperneck 12.5528 -9.01055 4.86196
head 4.35092 -4.35537 2.12005
rclavicle 1.42056e-013 -1.98785e-014
rhumerus -28.2461 3.30229 -84.8791
rradius 37.122
rwrist -9.48669
rhand -13.7475 -382.431
rfingers 7.12502
rthumb 12.3726 -412.045
lclavicle 1.42056e-013 -1.98785e-014
lhumerus -47.3128 24.6132 55.3769
lradius 23.7854
lwrist 5.28519
lhand -24.5741 -3.27257
lfingers 7.12502
lthumb 1.92288 26.6985
rfemur 0.941745 -9.24372 31.2966
rtibia 23.0423
rfoot -17.7534 -16.2906
rtoes 21.4041
lfemur -7.85115 9.68089 5.53969
ltibia 40.4314
lfoot -18.8739 30.5594
ltoes 31.0538
4378
root -18.78 17.5422 11.3732 188.037 50.2866 -163.631
lowerback 7.98577 4.06377 5.32902
upperback 1.25242 6.07093 2.48902
thorax -2.88696 3.028 -1.01083
lowerneck 1.00683 -7.03711 -7.82947
upperneck 12.208 -9.49982 5.63665
head 4.13573 -4.65336 2.64421
rclavicle 1.94461e-013 2.54444e-014
rhumerus -28.6362 4.46235 -84.8666
rradius 36.4
rwrist -9.22265
rhand -13.4936 -382.844
rfingers 7.12502
rthumb 12.6174 -412.443
lclavicle 1.94461e-013 2.54444e-014
lhumerus -49.0735 25.3364 55.0931
lradius 23.1741
lwrist 5.0166
lhand -24.6615 -5.2289
lfingers 7.12502
lthumb 1.83847 24.7429
rfemur 0.757777 -8.78908 32.0472
rtibia 22.6775
rfoot -17.4105 -16.0844
rtoes 21.0054
lfemur -8.55892 9.76819 6.26225
ltibia 41.5256
lfoot -19.2257 30.267
ltoes 34.8473
4379
root -18.7487 17.5416 11.4042 188.763 51.6936 -162.485
lowerback 8.18855 3.95792 5.58875
upperback 1.34829 5.98001 2.66021
thorax -2.89757 2.9865 -0.981193
lowerneck 1.78186 -7.48385 -8.32848
upperneck 11.6653 -10.2005 6.23716
head 3.94835 -5.01648 2.90455
rclavicle 1.76446e-013 -1.19271e-015
rhumerus -28.5346 4.59457 -84.9379
rradius 35.6975
rwrist -8.64263
rhand -13.2782 -382.607
rfingers 7.12502
rthumb 12.825 -412.193
lclavicle 1.76446e-013 -1.19271e-015
lhumerus -49.8358 25.3219 55.5758
lradius 23.2612
lwrist 5.35178
lhand -24.6798 -5.74143
lfingers 7.12502
lthumb 1.82082 24.2305
rfemur 1.32656 -8.0387 32.6166
rtibia 22.2867
rfoot -17.2009 -15.5473
rtoes 20.7199
lfemur -8.37017 9.19718 6.86205
ltibia 42.6217
lfoot -19.9572 30.1649
ltoes 37.7438
